<svg xmlns="http://www.w3.org/2000/svg" viewBox="0 0 201.68 36.12"><path d="M193.76 35.45v-16.8c0-2.16-1.29-3.46-3.65-3.46a8.4 8.4 0 0 0-3 .53v19.73h-7.92V10.87A29.35 29.35 0 0 1 189.99 9c8.11 0 11.66 3.12 11.66 8.73v17.72zM174.8 23.54l-16.13 2.12c.63 2.83 3.08 4.22 6.29 4.22a17.39 17.39 0 0 0 7.3-1.58l2.21 5.86a25.86 25.86 0 0 1-10.13 1.87c-9 0-13.4-5.85-13.4-13.53 0-7.92 4.61-13.49 12.39-13.49 7.54 0 11.57 5 11.57 12.14a19.19 19.19 0 0 1-.1 2.39zm-11.66-9c-2.79 0-4.95 1.92-5 6.19l9.13-1.15c0-3.24-1.59-5.01-4.13-5.01zm-17.63 8.62q-1.8 6.07-4.21 12.27h-9.41q-2.42-6-4.25-12.1c-1.23-4.07-2.3-10.13-3.22-14.35h8.23c.57 2.87 1.22 7.61 2 10.4s1.55 5.49 2.43 8.11q1.23-4 2.27-8.32c.69-2.87 1.26-7.54 1.7-10.19h7.71c-.97 4.18-2.06 10.18-3.25 14.18zm-33.99 12.86c-8.16 0-12.19-3-12.19-8.54 0-6.86 7-8.45 14.83-8.88v-1c0-2.06-1.44-3-4.13-3a21.4 21.4 0 0 0-7.34 1.56l-1.92-5.28A29.7 29.7 0 0 1 111 9.01c7.05 0 10.6 2.69 10.6 9.55v15.6c-1.96 1-5.95 1.86-10.08 1.86zm2.64-12.48c-4.27.2-7.49.68-7.49 3.75 0 2.11 1.78 3.26 4.61 3.26a10.42 10.42 0 0 0 2.88-.38zM93.86 9a7.52 7.52 0 0 0-5 2.31v-2.3h-6.2v26.44h7.92V15.67a7.48 7.48 0 0 1 2.69-.43 8.79 8.79 0 0 1 2.92.48l1.39-6.43A23.34 23.34 0 0 0 93.86 9zM77.24 35.9a15.74 15.74 0 0 1-2.74.21 10.37 10.37 0 0 1-2.55-.3 4.86 4.86 0 0 1-2-1 4.77 4.77 0 0 1-1.33-2 8.73 8.73 0 0 1-.47-3.07V0h7.94v27.65a2.94 2.94 0 0 0 .38 1.7 1.58 1.58 0 0 0 1.37.52h1.42v5.58a18.46 18.46 0 0 1-2.02.45zm-24.08.12c-8.16 0-12.19-3-12.19-8.54 0-6.86 7-8.45 14.83-8.88v-1c0-2.06-1.44-3-4.12-3a21.41 21.41 0 0 0-7.35 1.56l-1.92-5.28a29.75 29.75 0 0 1 10.23-1.87c7 0 10.6 2.69 10.6 9.55v15.6c-1.96 1-5.95 1.86-10.08 1.86zm2.64-12.48c-4.27.2-7.48.68-7.48 3.75 0 2.11 1.77 3.26 4.6 3.26a10.42 10.42 0 0 0 2.88-.39zm-20.06-.38q-1.71 6.07-3.88 12.27h-9.08l-3.59-14.35-3.4 14.37H6.58q-1.95-5.72-3.69-12C1.76 19.21.79 13.16 0 9h8.18c.47 2.93 1 7.66 1.58 10.36s1.22 5.38 1.91 8L15.58 9h8l4 18.41c1.39-5.54 2.51-13 3.36-18.41h7.66c-.75 4.16-1.73 10.16-2.86 14.16z" fill="#fff700"/></svg>